<?xml version="1.0" encoding="UTF-8"?>
<svg id="Layer_12" xmlns="http://www.w3.org/2000/svg" version="1.1" viewBox="0 0 270 270">
  <!-- Generator: Adobe Illustrator 29.6.0, SVG Export Plug-In . SVG Version: 2.1.1 Build 207)  -->
  <defs>
    <style>
      .st0 {
        fill: #779b99;
      }

      .st1 {
        fill: #d5cfb5;
      }

      .st2 {
        fill: #94b8b8;
      }

      .st3 {
        fill: #6e8279;
      }

      .st4 {
        fill: #794901;
      }

      .st5 {
        fill: #fed152;
      }

      .st6 {
        fill: #f3b127;
      }

      .st7 {
        fill: #2f2615;
      }
    </style>
  </defs>
  <path class="st0" d="M207,234l9-117c0-8.7-36.26-15.76-81-15.76s-81,7.06-81,15.76l9,117c0,18,32.24,27,72,27s72-9,72-27Z"/>
  <path class="st6" d="M216,117l3.82-40.5c0-7.46-37.98-13.5-84.82-13.5s-84.82,6.04-84.82,13.5l3.82,40.5c0,9.94,36.26,18,81,18s81-8.06,81-18Z"/>
  <circle class="st2" cx="126" cy="180" r="10.19"/>
  <circle class="st2" cx="118.19" cy="151.81" r="10.19"/>
  <circle class="st5" cx="69.23" cy="105" r="10.19"/>
  <circle class="st5" cx="107.92" cy="103.19" r="10.19"/>
  <circle class="st5" cx="145.19" cy="115.81" r="10.19"/>
  <circle class="st5" cx="88.81" cy="118.19" r="10.19"/>
  <circle class="st5" cx="163.19" cy="100.19" r="10.19"/>
  <circle class="st5" cx="189" cy="115.81" r="10.19"/>
  <circle class="st2" cx="198" cy="153" r="10.19"/>
  <circle class="st2" cx="180" cy="180" r="10.19"/>
  <circle class="st2" cx="145.19" cy="160.81" r="10.19"/>
  <circle class="st2" cx="171" cy="144" r="10.19"/>
  <rect class="st2" x="76.27" y="135.56" width="23" height="76.76" transform="translate(-7.66 4.08) rotate(-2.55)"/>
  <rect class="st5" x="71.95" y="69.38" width="23" height="15.21" transform="translate(-3.35 3.8) rotate(-2.55)"/>
  <rect class="st1" x="70.18" y="12.49" width="23" height="49.83" transform="translate(-1.58 3.67) rotate(-2.55)"/>
  <path class="st1" d="M135,40c-23.82,0-46.53-1.14-63.94-3.21-8.45-1.01-15.23-2.18-20.15-3.5-3.69-.99-14.91-4-14.91-14.28s11.55-13.22,15.34-14.08c4.78-1.08,11.53-2,20.06-2.74,16.08-1.4,38.67-2.18,63.6-2.18s47.52.77,63.6,2.18c8.53.75,15.28,1.67,20.06,2.74,3.8.85,15.34,3.45,15.34,14.08s-11.22,13.3-14.91,14.28c-4.92,1.32-11.7,2.5-20.15,3.5-17.41,2.07-40.12,3.21-63.94,3.21Z"/>
  <path class="st1" d="M192.04,225.2c-1.25-2.68-16.85-8.2-57.04-8.2s-55.78,5.53-57.04,8.2c0-.02.04-.1.04-.2h-8c0-8.04,11.82-11.17,20.72-12.83,11.11-2.07,26.42-3.17,44.28-3.17s33.17,1.1,44.28,3.17c8.89,1.66,20.72,4.79,20.72,12.83h-8c0,.1.03.18.04.2Z"/>
  <path class="st1" d="M135,270c-21.79,0-40.27-2.36-53.45-6.83-22.77-7.72-27.55-20.67-27.55-30.17h22c0,6.23,18.3,15,59,15s59-8.77,59-15h22c0,9.5-4.78,22.44-27.55,30.17-13.18,4.47-31.66,6.83-53.45,6.83Z"/>
  <path class="st1" d="M135,252c-22.73,0-40.98-2.1-54.25-6.25-23.35-7.29-28.25-20.2-28.25-29.75h22c0,5.41,16.42,14,60.5,14s60.5-8.59,60.5-14h22c0,9.54-4.9,22.45-28.25,29.75-13.27,4.15-31.53,6.25-54.25,6.25Z"/>
  <rect class="st1" x="45" y="18.62" width="22" height="214.76" transform="translate(-10.36 5.14) rotate(-4.81)"/>
  <rect class="st1" x="106.62" y="115" width="214.76" height="22" transform="translate(70.51 328.69) rotate(-85.19)"/>
  <path class="st7" d="M135,31c-24.17,0-46.91-.94-64.04-2.66-8.44-.84-15.11-1.84-19.81-2.95-3.55-.84-10.15-2.4-10.15-7.4s6.6-6.56,10.15-7.4c4.7-1.11,11.37-2.1,19.81-2.95,17.13-1.71,39.87-2.66,64.04-2.66s46.91.94,64.04,2.66c8.44.84,15.11,1.84,19.81,2.95,3.55.84,10.15,2.4,10.15,7.4s-6.6,6.56-10.15,7.4c-4.7,1.11-11.37,2.1-19.81,2.95-17.13,1.71-39.87,2.66-64.04,2.66ZM54.55,18c12.28,2.5,40.74,5,80.45,5s68.17-2.5,80.45-5c-12.28-2.5-40.74-5-80.45-5s-68.17,2.5-80.45,5Z"/>
  <path class="st4" d="M135,94c-21.85,0-42.42-1.42-57.93-4.01-23.99-4-27.07-9.31-27.07-13.49s3.08-9.49,27.07-13.49c15.51-2.58,36.08-4.01,57.93-4.01s42.42,1.42,57.93,4.01c23.99,4,27.07,9.31,27.07,13.49s-3.08,9.49-27.07,13.49c-15.51,2.58-36.08,4.01-57.93,4.01ZM58.59,76.5c5.1,3.59,30.68,9.5,76.41,9.5s71.31-5.91,76.41-9.5c-5.1-3.59-30.68-9.5-76.41-9.5s-71.31,5.91-76.41,9.5Z"/>
  <path class="st7" d="M135,265c-20.96,0-39.02-2.41-52.22-6.97-19.66-6.79-23.78-16.82-23.78-24.03h8c0,13.76,27.33,23,68,23s68-9.24,68-23h8c0,7.22-4.13,17.24-23.78,24.03-13.2,4.56-31.26,6.97-52.22,6.97Z"/>
  <path class="st3" d="M135,247c-21.38,0-39.79-2.41-53.25-6.96-20.04-6.78-24.25-16.81-24.25-24.04h8c0,13.76,27.93,23,69.5,23s69.5-9.24,69.5-23h8c0,7.22-4.21,17.26-24.25,24.04-13.46,4.55-31.88,6.96-53.25,6.96Z"/>
  <rect class="st7" x="50" y="17.63" width="8" height="216.75" transform="translate(-10.28 4.92) rotate(-4.76)"/>
  <rect class="st7" x="107.63" y="122" width="216.75" height="8" transform="translate(72.51 330.8) rotate(-85.24)"/>
</svg>