<svg xmlns="http://www.w3.org/2000/svg" viewBox="0 0 408.14 57.5"><defs><style>.cls-1{fill:#fff;}</style></defs><g id="Layer_2" data-name="Layer 2"><g id="Layer_1-2" data-name="Layer 1"><path class="cls-1" d="M132.43,33.7l7.16,1.53c3.45.72,5.54,3,5.54,5.38,0,2.9-2.65,4.75-6.83,4.75A15.83,15.83,0,0,1,124.71,37L123.1,38.2a17.22,17.22,0,0,0,15.2,9.25c5.39,0,8.84-2.66,8.84-6.84,0-3.54-2.81-6.67-7.23-7.56l-7.16-1.44c-8.28-1.69-13.67-7.4-13.67-15,0-9.41,7.4-14.47,20-14.47,15.2,0,24.93,9.08,31,23.24,6,13.66,15,22.51,24.28,22.51,6,0,9.73-2.82,9.73-7.08,0-3.78-3.21-6.67-8.12-7.72l-7-1.44c-8-1.69-13-7.48-13-15.44C176,7,184,1.86,196.43,2.1c14.56.24,24.53,8.84,30,22.11C231.57,37.48,234.63,46,240.34,46h1.93V2.26h-1.93V43.75c-5-.24-7.24-8-12.07-20.34C222.65,9.41,211.87.25,196.43,0c-13.75-.24-22.35,5.63-22.35,16.16,0,9.17,5.71,15.6,14.55,17.53l7,1.53c4,.88,6.51,3,6.51,5.38,0,3.14-3,5.15-7.72,5.15-8.6,0-16.8-8.36-22.51-21.39C165.4,9.58,155,0,139.1,0c-13.91,0-21.95,5.79-21.95,16.56C117.15,25.34,123.1,31.69,132.43,33.7Z"/><path class="cls-1" d="M223.29,25.58C218.55,13,208,4.91,195.23,4.75c-9.73-.08-15.52,3.78-15.52,10.94,0,6.67,4.5,11.58,11.18,12.94l7.39,1.53c6,1.21,9.89,5.07,9.89,9.89,0,6.43-5.46,10.53-14,10.53-10.93,0-20.82-9.32-27.09-23.8C161.38,13.44,151.73,5,138.7,5c-9.81,0-15.92,3.86-15.92,11.1,0,6.35,4.83,11,12.06,12.54l7.24,1.53c5.55,1.21,9.16,5.15,9.16,9.89,0,6.35-5.14,10.37-13.18,10.37-7.8,0-14.72-3.94-17.85-10.13l-1.69,1.13c3.38,6.75,11.1,11.09,19.54,11.09,9.16,0,15.11-4.9,15.11-12.46,0-5.95-4.18-10.77-10.69-12.14l-7.32-1.53c-6.27-1.29-10.45-5.15-10.45-10.29,0-5.87,5.47-9,14-9,12.38,0,21.23,8,26.62,20.67,6.43,15.19,17,24.92,28.86,24.92,9.65,0,15.92-4.9,15.92-12.62,0-5.87-4.5-10.69-11.42-12.14l-7.39-1.53c-5.79-1.21-9.65-5.15-9.65-10.69,0-5.79,5.14-8.93,13.59-8.85C207.29,7,217,14.48,221.44,26.38c5.71,15,10.85,24.69,19.3,24.69h6.67V2.26h-1.93V49h-4.74C233,49,228.6,39.73,223.29,25.58Z"/><polygon class="cls-1" points="283.84 2.26 283.75 55.01 285.69 55.01 285.76 2.26 283.84 2.26"/><polygon class="cls-1" points="278.61 55.01 280.54 55.01 280.62 2.26 278.69 2.26 278.61 55.01"/><path class="cls-1" d="M273.51,22.68H252.77l0-20.42h-1.93L250.79,54h-9.57c-10.61,0-17.05-10.37-22.76-26.29-4-11.26-12.06-18.17-22.91-18.17-5.55,0-9.89,2-9.89,6.51,0,4.26,2.89,6.43,7.48,7.32l7.72,1.52c8,1.61,13.26,7.4,13.26,14.64,0,9.65-8,15.84-20.26,15.84-13.19,0-24.68-10.29-31.52-26.3C157.28,17.21,150,9.9,139.1,9.9c-5.79,0-10.45,1.69-10.45,6.35,0,4.18,3.3,6.11,8.52,7.16l7.48,1.52c7.64,1.53,12.55,7.48,12.55,14.64,0,9.65-7.64,15.84-19.46,15.84-9.89,0-18.58-4.67-22.2-11.9l-1.68,1.2c3.77,7.8,13.18,12.79,23.88,12.79,13,0,21.38-7,21.38-17.93,0-8.37-5.46-15-14.07-16.81l-7.55-1.53c-4.19-.88-6.76-2.49-6.76-5.14,0-3.3,3.86-4.1,8.36-4.1,10.13,0,16.73,6.91,21.47,18.09C167.81,46.8,180,57.5,193.86,57.5c13.51,0,22.19-7,22.19-17.93,0-8.37-5.79-15-14.87-16.81l-7.64-1.53c-3.62-.72-5.79-2.17-5.79-5,0-3.46,3.46-4.58,7.8-4.58,10,0,17.37,6.43,21.07,16.88,6,16.81,13.18,27.58,24.6,27.58h11.5l0-22.19H273.5l0,21.07h1.93l.08-52.75h-1.93Zm0,1.93v2.82H252.76V24.61ZM252.75,32V29.19H273.5V32Z"/><polygon class="cls-1" points="408.14 11.02 408.14 2.26 373.17 2.26 373.17 54.92 407.98 54.92 407.98 46.16 384.42 46.16 384.42 32.49 406.54 32.49 406.54 23.73 384.42 23.73 384.42 11.02 408.14 11.02"/><polygon class="cls-1" points="350.81 37.86 331.52 2.26 317.85 2.26 317.85 54.92 329.1 54.92 329.1 18.35 349.21 54.92 362.07 54.92 362.07 2.26 350.81 2.26 350.81 37.86"/><rect class="cls-1" x="295.41" y="2.26" width="11.26" height="52.67"/><path class="cls-1" d="M98.82,54.92H111L92.47,2.26H78.64L60.71,54.92H71.4L75.27,43H95ZM78.28,33.78l7-21.41,6.83,21.41Z"/><polygon class="cls-1" points="38.03 2.26 27.42 38.85 16.8 2.26 0 2.26 0 54.92 10.29 54.92 10.29 14.35 22.43 54.92 32.32 54.92 44.22 14.33 44.22 54.92 54.92 54.92 54.92 2.26 38.03 2.26"/></g></g></svg>