<svg xmlns="http://www.w3.org/2000/svg" viewBox="0 0 812.4 165.66"><defs><style>.cls-1{fill:#fff;}</style></defs><g id="Layer_2" data-name="Layer 2"><g id="Layer_1-2" data-name="Layer 1"><path class="cls-1" d="M258.43,38.88V165.66h27.83V66.71A27.71,27.71,0,0,0,258.43,38.88Z"/><path class="cls-1" d="M812,72.89c0-15.46-13.25-27.39-25.62-27.39-8-.44-15.46,2.21-20.76,8L748.35,72c-10.16,10.6-9.28,27.83,1.32,38l34.54-36.76.29,66.8H732.44V28.71A27.72,27.72,0,0,0,704.61.88v137a27.72,27.72,0,0,0,27.83,27.83H785a27.25,27.25,0,0,0,27.39-27.39Z"/><path class="cls-1" d="M341,35.34c-8-.44-15.46,2.21-20.76,7.95l-34,36.23c10.16,10.16,27.83,11,38-.44L338.9,63l.37,102.63h27.84l-.45-102.93C366.66,47.27,353.41,35.34,341,35.34Z"/><path class="cls-1" d="M56.55,66.26H76.43c15,0,27.83-12.81,27.83-26.06H56.55V27.83A28,28,0,0,0,28.71,0V40.2H0C0,53.45,12.81,66.26,27.83,66.26h.88v71.13a28,28,0,0,0,27.84,27.83H87.91c15.46,0,27.83-12.81,27.83-25.62H56.55Z"/><path class="cls-1" d="M204.54,41.53H140.92c0,15.46,12.37,25.62,27.83,25.62h35.79v72.79l-49.28-.25,39.12-36.76c-10.16-10.6-27.39-11.49-38-1.32l-18.55,17.22c-5.74,5.31-8.39,12.82-8,20.77,0,12.37,11.93,26.06,27.39,26.06H205a27.25,27.25,0,0,0,27.39-27.39V69.36A27.72,27.72,0,0,0,204.54,41.53Z"/><path class="cls-1" d="M652,41.53H588.43c0,15.46,12.37,25.62,27.83,25.62H652v72.79l-49.27-.25,39.11-36.76c-10.16-10.6-27.39-11.49-38-1.32l-18.55,17.22c-5.75,5.31-8.4,12.82-8,20.77,0,12.37,11.93,26.06,27.39,26.06h47.71a27.24,27.24,0,0,0,27.39-27.39V69.36A27.72,27.72,0,0,0,652,41.53Z"/><path class="cls-1" d="M419.23,66.26h19.88c15,0,27.83-12.81,27.83-26.06H419.23V27.83A28,28,0,0,0,391.4,0V137.39a28,28,0,0,0,27.83,27.83H450.6c15.46,0,27.83-12.81,27.83-25.62h-59.2Z"/><path class="cls-1" d="M538.07,137.83H524.81V28.71c0-15.46-12.36-27.83-28.27-27.83v137c0,15.46,12.81,27.83,28.27,27.83h41.53C566.34,150.2,553.53,137.83,538.07,137.83Z"/></g></g></svg>