<?xml version="1.0" encoding="UTF-8"?>
<svg id="Layer_12" xmlns="http://www.w3.org/2000/svg" version="1.1" viewBox="0 0 381.4 281.63">
  <!-- Generator: Adobe Illustrator 29.6.0, SVG Export Plug-In . SVG Version: 2.1.1 Build 207)  -->
  <defs>
    <style>
      .st0 {
        fill: #deece8;
      }

      .st1 {
        fill: #4e6b67;
      }

      .st2 {
        fill: #5d7571;
      }

      .st3 {
        fill: #3f514e;
      }
    </style>
  </defs>
  <rect class="st2" width="381.4" height="281.63"/>
  <polygon class="st3" points="381.4 281.63 0 281.63 381.4 0 381.4 281.63"/>
  <rect class="st1" x="4.52" y="3.31" width="372.3" height="274.99"/>
  <circle class="st0" cx="182.71" cy="180.36" r="8.98"/>
  <circle class="st0" cx="175.83" cy="155.53" r="8.98"/>
  <circle class="st0" cx="132.71" cy="114.3" r="8.98"/>
  <circle class="st0" cx="166.79" cy="112.71" r="8.98"/>
  <circle class="st0" cx="199.61" cy="123.82" r="8.98"/>
  <circle class="st0" cx="149.96" cy="125.92" r="8.98"/>
  <circle class="st0" cx="215.47" cy="110.07" r="8.98"/>
  <circle class="st0" cx="238.2" cy="123.82" r="8.98"/>
  <circle class="st0" cx="246.13" cy="156.58" r="8.98"/>
  <circle class="st0" cx="230.27" cy="180.36" r="8.98"/>
  <circle class="st0" cx="199.61" cy="163.46" r="8.98"/>
  <circle class="st0" cx="222.35" cy="148.65" r="8.98"/>
  <rect class="st0" x="139.27" y="154.33" width="20.26" height="57.74" transform="translate(-8 6.83) rotate(-2.55)"/>
  <rect class="st0" x="135.1" y="82.94" width="20.26" height="13.4" transform="translate(-3.84 6.55) rotate(-2.55)"/>
  <rect class="st0" x="133.67" y="45.93" width="20.26" height="22.98" transform="translate(-2.41 6.45) rotate(-2.55)"/>
  <path class="st0" d="M240.88,220.17c-1.1-2.36-14.84-7.22-50.24-7.22s-49.13,4.87-50.24,7.22c0-.02.04-.09.04-.18h-7.05c0-7.08,10.41-9.84,18.25-11.3,9.79-1.82,23.27-2.79,39-2.79s29.22.97,39,2.79c7.83,1.46,18.25,4.22,18.25,11.3h-7.05c0,.09.03.16.04.18Z"/>
  <path class="st0" d="M190.64,49.13c-21.29,0-41.32-.83-56.41-2.34-7.43-.74-13.31-1.62-17.45-2.6-3.13-.74-8.94-2.11-8.94-6.52s5.81-5.78,8.94-6.52c4.14-.98,10.01-1.85,17.45-2.6,15.09-1.51,35.12-2.34,56.41-2.34s41.32.83,56.41,2.34c7.43.74,13.31,1.62,17.45,2.6,3.13.74,8.94,2.11,8.94,6.52s-5.81,5.78-8.94,6.52c-4.14.98-10.01,1.85-17.45,2.6-15.09,1.51-35.12,2.34-56.41,2.34ZM119.78,37.68c10.82,2.2,35.88,4.4,70.86,4.4s60.04-2.2,70.86-4.4c-10.82-2.2-35.88-4.4-70.86-4.4s-60.04,2.2-70.86,4.4Z"/>
  <path class="st0" d="M190.64,104.62c-19.25,0-37.36-1.25-51.02-3.53-21.13-3.52-23.84-8.2-23.84-11.88s2.71-8.36,23.84-11.88c13.66-2.27,31.78-3.53,51.02-3.53s37.36,1.25,51.02,3.53c21.13,3.52,23.84,8.2,23.84,11.88s-2.71,8.36-23.84,11.88c-13.66,2.27-31.78,3.53-51.02,3.53ZM123.34,89.2c4.49,3.16,27.02,8.37,67.3,8.37s62.81-5.21,67.3-8.37c-4.49-3.16-27.02-8.37-67.3-8.37s-62.81,5.21-67.3,8.37Z"/>
  <path class="st0" d="M190.64,255.23c-18.46,0-34.37-2.12-45.99-6.14-17.32-5.98-20.94-14.81-20.94-21.17h7.05c0,12.12,24.07,20.26,59.89,20.26s59.89-8.14,59.89-20.26h7.05c0,6.36-3.64,15.18-20.94,21.17-11.63,4.02-27.53,6.14-45.99,6.14Z"/>
  <path class="st0" d="M190.64,239.37c-18.83,0-35.05-2.12-46.9-6.13-17.65-5.97-21.36-14.81-21.36-21.17h7.05c0,12.12,24.6,20.26,61.21,20.26s61.21-8.14,61.21-20.26h7.05c0,6.36-3.71,15.2-21.36,21.17-11.86,4.01-28.08,6.13-46.9,6.13h0Z"/>
  <path class="st0" d="M191.08,143.07c-25.27,1.13-47.09.54-63.13-1.68-23.88-3.31-29.14-9.55-29.35-14.2l9.45-.42c.39,8.86,33.67,13.34,82.79,11.15,49.13-2.19,81.87-9.61,81.47-18.46l9.45-.42c.21,4.65-4.48,11.33-27.97,16.75-15.78,3.64-37.47,6.16-62.73,7.28h0Z"/>
  <rect class="st0" x="115.76" y="37.35" width="7.05" height="190.91" transform="translate(-10.61 10.36) rotate(-4.76)"/>
  <rect class="st0" x="166.53" y="129.27" width="190.91" height="7.05" transform="translate(107.9 382.86) rotate(-85.24)"/>
</svg>